<mxfile host="www.draw.io" modified="2020-02-11T15:40:09.217Z" agent="Mozilla/5.0 (Windows NT 10.0; Win64; x64) AppleWebKit/537.36 (KHTML, like Gecko) Chrome/79.0.3945.130 Safari/537.36" etag="xibaR1QG7CYgxz2lCID-" version="12.6.7" type="github">
  <diagram name="Page-1" id="2c4490ee-f0b8-94ab-5012-d5dc3445f7a3">
    <mxGraphModel dx="1422" dy="762" grid="1" gridSize="10" guides="1" tooltips="1" connect="0" arrows="1" fold="1" page="1" pageScale="1.5" pageWidth="1169" pageHeight="826" background="#ffffff" math="0" shadow="0">
      <root>
        <mxCell id="0" style=";html=1;"/>
        <mxCell id="1" style=";html=1;" parent="0"/>
        <mxCell id="67c90442a009f359-279" value="Mar" style="strokeWidth=1;fontStyle=0;html=1;" parent="1" vertex="1">
          <mxGeometry x="400" y="130" width="120" height="20" as="geometry"/>
        </mxCell>
        <mxCell id="7a8b956e7d50b54d-104" value="Apr" style="strokeWidth=1;fontStyle=0;html=1;" parent="1" vertex="1">
          <mxGeometry x="520" y="130" width="120" height="20" as="geometry"/>
        </mxCell>
        <mxCell id="7a8b956e7d50b54d-109" value="May" style="strokeWidth=1;fontStyle=0;html=1;" parent="1" vertex="1">
          <mxGeometry x="640" y="130" width="120" height="20" as="geometry"/>
        </mxCell>
        <mxCell id="7a8b956e7d50b54d-114" value="June" style="strokeWidth=1;fontStyle=0;html=1;" parent="1" vertex="1">
          <mxGeometry x="760" y="130" width="120" height="20" as="geometry"/>
        </mxCell>
        <mxCell id="7a8b956e7d50b54d-119" value="July" style="strokeWidth=1;fontStyle=0;html=1;" parent="1" vertex="1">
          <mxGeometry x="880" y="130" width="120" height="20" as="geometry"/>
        </mxCell>
        <mxCell id="7a8b956e7d50b54d-124" value="Aug" style="strokeWidth=1;fontStyle=0;html=1;" parent="1" vertex="1">
          <mxGeometry x="1000" y="130" width="120" height="20" as="geometry"/>
        </mxCell>
        <mxCell id="7a8b956e7d50b54d-129" value="Sept" style="strokeWidth=1;fontStyle=0;html=1;" parent="1" vertex="1">
          <mxGeometry x="1120" y="130" width="120" height="20" as="geometry"/>
        </mxCell>
        <mxCell id="7a8b956e7d50b54d-134" value="Oct" style="strokeWidth=1;fontStyle=0;html=1;" parent="1" vertex="1">
          <mxGeometry x="1240" y="130" width="120" height="20" as="geometry"/>
        </mxCell>
        <mxCell id="7a8b956e7d50b54d-139" value="Nov" style="strokeWidth=1;fontStyle=0;html=1;" parent="1" vertex="1">
          <mxGeometry x="1360" y="130" width="120" height="20" as="geometry"/>
        </mxCell>
        <mxCell id="7a8b956e7d50b54d-145" value="Feb" style="strokeWidth=1;fontStyle=0;html=1;" parent="1" vertex="1">
          <mxGeometry x="280" y="130" width="120" height="20" as="geometry"/>
        </mxCell>
        <mxCell id="7a8b956e7d50b54d-150" value="" style="align=left;strokeColor=#CCCCCC;html=1;" parent="1" vertex="1">
          <mxGeometry x="160" y="170" width="120" height="20" as="geometry"/>
        </mxCell>
        <mxCell id="7a8b956e7d50b54d-151" value="Jan" style="strokeWidth=1;fontStyle=0;html=1;" parent="1" vertex="1">
          <mxGeometry x="160" y="130" width="120" height="20" as="geometry"/>
        </mxCell>
        <mxCell id="7a8b956e7d50b54d-157" value="Dec" style="strokeWidth=1;fontStyle=0;html=1;" parent="1" vertex="1">
          <mxGeometry x="1480" y="130" width="120" height="20" as="geometry"/>
        </mxCell>
        <mxCell id="7a8b956e7d50b54d-162" value="" style="align=left;strokeColor=#CCCCCC;html=1;" parent="1" vertex="1">
          <mxGeometry x="160" y="190" width="120" height="20" as="geometry"/>
        </mxCell>
        <mxCell id="7a8b956e7d50b54d-163" value="" style="align=left;strokeColor=#CCCCCC;html=1;" parent="1" vertex="1">
          <mxGeometry x="160" y="210" width="120" height="20" as="geometry"/>
        </mxCell>
        <mxCell id="7a8b956e7d50b54d-164" value="" style="align=left;strokeColor=#CCCCCC;html=1;" parent="1" vertex="1">
          <mxGeometry x="160" y="230" width="120" height="20" as="geometry"/>
        </mxCell>
        <mxCell id="7a8b956e7d50b54d-165" value="" style="align=left;strokeColor=#CCCCCC;html=1;" parent="1" vertex="1">
          <mxGeometry x="160" y="250" width="120" height="20" as="geometry"/>
        </mxCell>
        <mxCell id="7a8b956e7d50b54d-166" value="" style="align=left;strokeColor=#CCCCCC;html=1;" parent="1" vertex="1">
          <mxGeometry x="160" y="270" width="120" height="20" as="geometry"/>
        </mxCell>
        <mxCell id="7a8b956e7d50b54d-167" value="" style="align=left;strokeColor=#CCCCCC;html=1;" parent="1" vertex="1">
          <mxGeometry x="160" y="290" width="120" height="20" as="geometry"/>
        </mxCell>
        <mxCell id="7a8b956e7d50b54d-168" value="" style="align=left;strokeColor=#CCCCCC;html=1;" parent="1" vertex="1">
          <mxGeometry x="160" y="310" width="120" height="20" as="geometry"/>
        </mxCell>
        <mxCell id="7a8b956e7d50b54d-169" value="" style="align=left;strokeColor=#CCCCCC;html=1;" parent="1" vertex="1">
          <mxGeometry x="160" y="330" width="120" height="20" as="geometry"/>
        </mxCell>
        <mxCell id="7a8b956e7d50b54d-170" value="" style="align=left;strokeColor=#CCCCCC;html=1;" parent="1" vertex="1">
          <mxGeometry x="160" y="350" width="120" height="20" as="geometry"/>
        </mxCell>
        <mxCell id="7a8b956e7d50b54d-171" value="" style="align=left;strokeColor=#CCCCCC;html=1;" parent="1" vertex="1">
          <mxGeometry x="160" y="370" width="120" height="20" as="geometry"/>
        </mxCell>
        <mxCell id="7a8b956e7d50b54d-172" value="" style="align=left;strokeColor=#CCCCCC;html=1;" parent="1" vertex="1">
          <mxGeometry x="160" y="390" width="120" height="20" as="geometry"/>
        </mxCell>
        <mxCell id="7a8b956e7d50b54d-173" value="" style="align=left;strokeColor=#CCCCCC;html=1;" parent="1" vertex="1">
          <mxGeometry x="160" y="410" width="120" height="20" as="geometry"/>
        </mxCell>
        <mxCell id="7a8b956e7d50b54d-174" value="" style="align=left;strokeColor=#CCCCCC;html=1;" parent="1" vertex="1">
          <mxGeometry x="160" y="430" width="120" height="20" as="geometry"/>
        </mxCell>
        <mxCell id="7a8b956e7d50b54d-175" value="" style="align=left;strokeColor=#CCCCCC;html=1;" parent="1" vertex="1">
          <mxGeometry x="160" y="450" width="120" height="20" as="geometry"/>
        </mxCell>
        <mxCell id="7a8b956e7d50b54d-176" value="" style="align=left;strokeColor=#CCCCCC;html=1;" parent="1" vertex="1">
          <mxGeometry x="160" y="470" width="120" height="20" as="geometry"/>
        </mxCell>
        <mxCell id="7a8b956e7d50b54d-177" value="" style="align=left;strokeColor=#CCCCCC;html=1;" parent="1" vertex="1">
          <mxGeometry x="280" y="170" width="120" height="20" as="geometry"/>
        </mxCell>
        <mxCell id="7a8b956e7d50b54d-178" value="" style="align=left;strokeColor=#CCCCCC;html=1;" parent="1" vertex="1">
          <mxGeometry x="280" y="190" width="120" height="20" as="geometry"/>
        </mxCell>
        <mxCell id="7a8b956e7d50b54d-179" value="" style="align=left;strokeColor=#CCCCCC;html=1;" parent="1" vertex="1">
          <mxGeometry x="280" y="210" width="120" height="20" as="geometry"/>
        </mxCell>
        <mxCell id="7a8b956e7d50b54d-180" value="" style="align=left;strokeColor=#CCCCCC;html=1;" parent="1" vertex="1">
          <mxGeometry x="280" y="230" width="120" height="20" as="geometry"/>
        </mxCell>
        <mxCell id="7a8b956e7d50b54d-181" value="" style="align=left;strokeColor=#CCCCCC;html=1;" parent="1" vertex="1">
          <mxGeometry x="280" y="250" width="120" height="20" as="geometry"/>
        </mxCell>
        <mxCell id="7a8b956e7d50b54d-182" value="" style="align=left;strokeColor=#CCCCCC;html=1;" parent="1" vertex="1">
          <mxGeometry x="280" y="270" width="120" height="20" as="geometry"/>
        </mxCell>
        <mxCell id="7a8b956e7d50b54d-183" value="" style="align=left;strokeColor=#CCCCCC;html=1;" parent="1" vertex="1">
          <mxGeometry x="280" y="290" width="120" height="20" as="geometry"/>
        </mxCell>
        <mxCell id="7a8b956e7d50b54d-184" value="" style="align=left;strokeColor=#CCCCCC;html=1;" parent="1" vertex="1">
          <mxGeometry x="280" y="310" width="120" height="20" as="geometry"/>
        </mxCell>
        <mxCell id="7a8b956e7d50b54d-185" value="" style="align=left;strokeColor=#CCCCCC;html=1;" parent="1" vertex="1">
          <mxGeometry x="280" y="330" width="120" height="20" as="geometry"/>
        </mxCell>
        <mxCell id="7a8b956e7d50b54d-186" value="" style="align=left;strokeColor=#CCCCCC;html=1;" parent="1" vertex="1">
          <mxGeometry x="280" y="350" width="120" height="20" as="geometry"/>
        </mxCell>
        <mxCell id="7a8b956e7d50b54d-187" value="" style="align=left;strokeColor=#CCCCCC;html=1;" parent="1" vertex="1">
          <mxGeometry x="280" y="370" width="120" height="20" as="geometry"/>
        </mxCell>
        <mxCell id="7a8b956e7d50b54d-188" value="" style="align=left;strokeColor=#CCCCCC;html=1;" parent="1" vertex="1">
          <mxGeometry x="280" y="390" width="120" height="20" as="geometry"/>
        </mxCell>
        <mxCell id="7a8b956e7d50b54d-189" value="" style="align=left;strokeColor=#CCCCCC;html=1;" parent="1" vertex="1">
          <mxGeometry x="280" y="410" width="120" height="20" as="geometry"/>
        </mxCell>
        <mxCell id="7a8b956e7d50b54d-190" value="" style="align=left;strokeColor=#CCCCCC;html=1;" parent="1" vertex="1">
          <mxGeometry x="280" y="430" width="120" height="20" as="geometry"/>
        </mxCell>
        <mxCell id="7a8b956e7d50b54d-191" value="" style="align=left;strokeColor=#CCCCCC;html=1;" parent="1" vertex="1">
          <mxGeometry x="280" y="450" width="120" height="20" as="geometry"/>
        </mxCell>
        <mxCell id="7a8b956e7d50b54d-192" value="" style="align=left;strokeColor=#CCCCCC;html=1;" parent="1" vertex="1">
          <mxGeometry x="280" y="470" width="120" height="20" as="geometry"/>
        </mxCell>
        <mxCell id="7a8b956e7d50b54d-193" value="" style="align=left;strokeColor=#CCCCCC;html=1;" parent="1" vertex="1">
          <mxGeometry x="400" y="170" width="120" height="20" as="geometry"/>
        </mxCell>
        <mxCell id="7a8b956e7d50b54d-194" value="" style="align=left;strokeColor=#CCCCCC;html=1;" parent="1" vertex="1">
          <mxGeometry x="400" y="190" width="120" height="20" as="geometry"/>
        </mxCell>
        <mxCell id="7a8b956e7d50b54d-195" value="" style="align=left;strokeColor=#CCCCCC;html=1;" parent="1" vertex="1">
          <mxGeometry x="400" y="210" width="120" height="20" as="geometry"/>
        </mxCell>
        <mxCell id="7a8b956e7d50b54d-196" value="" style="align=left;strokeColor=#CCCCCC;html=1;" parent="1" vertex="1">
          <mxGeometry x="400" y="230" width="120" height="20" as="geometry"/>
        </mxCell>
        <mxCell id="7a8b956e7d50b54d-197" value="" style="align=left;strokeColor=#CCCCCC;html=1;" parent="1" vertex="1">
          <mxGeometry x="400" y="250" width="120" height="20" as="geometry"/>
        </mxCell>
        <mxCell id="7a8b956e7d50b54d-198" value="" style="align=left;strokeColor=#CCCCCC;html=1;" parent="1" vertex="1">
          <mxGeometry x="400" y="270" width="120" height="20" as="geometry"/>
        </mxCell>
        <mxCell id="7a8b956e7d50b54d-199" value="" style="align=left;strokeColor=#CCCCCC;html=1;" parent="1" vertex="1">
          <mxGeometry x="400" y="290" width="120" height="20" as="geometry"/>
        </mxCell>
        <mxCell id="7a8b956e7d50b54d-200" value="" style="align=left;strokeColor=#CCCCCC;html=1;" parent="1" vertex="1">
          <mxGeometry x="400" y="310" width="120" height="20" as="geometry"/>
        </mxCell>
        <mxCell id="7a8b956e7d50b54d-201" value="" style="align=left;strokeColor=#CCCCCC;html=1;" parent="1" vertex="1">
          <mxGeometry x="400" y="330" width="120" height="20" as="geometry"/>
        </mxCell>
        <mxCell id="7a8b956e7d50b54d-202" value="" style="align=left;strokeColor=#CCCCCC;html=1;" parent="1" vertex="1">
          <mxGeometry x="400" y="350" width="120" height="20" as="geometry"/>
        </mxCell>
        <mxCell id="7a8b956e7d50b54d-203" value="" style="align=left;strokeColor=#CCCCCC;html=1;" parent="1" vertex="1">
          <mxGeometry x="400" y="370" width="120" height="20" as="geometry"/>
        </mxCell>
        <mxCell id="7a8b956e7d50b54d-204" value="" style="align=left;strokeColor=#CCCCCC;html=1;" parent="1" vertex="1">
          <mxGeometry x="400" y="390" width="120" height="20" as="geometry"/>
        </mxCell>
        <mxCell id="7a8b956e7d50b54d-205" value="" style="align=left;strokeColor=#CCCCCC;html=1;" parent="1" vertex="1">
          <mxGeometry x="400" y="410" width="120" height="20" as="geometry"/>
        </mxCell>
        <mxCell id="7a8b956e7d50b54d-206" value="" style="align=left;strokeColor=#CCCCCC;html=1;" parent="1" vertex="1">
          <mxGeometry x="400" y="430" width="120" height="20" as="geometry"/>
        </mxCell>
        <mxCell id="7a8b956e7d50b54d-207" value="" style="align=left;strokeColor=#CCCCCC;html=1;" parent="1" vertex="1">
          <mxGeometry x="400" y="450" width="120" height="20" as="geometry"/>
        </mxCell>
        <mxCell id="7a8b956e7d50b54d-208" value="" style="align=left;strokeColor=#CCCCCC;html=1;" parent="1" vertex="1">
          <mxGeometry x="400" y="470" width="120" height="20" as="geometry"/>
        </mxCell>
        <mxCell id="7a8b956e7d50b54d-209" value="" style="align=left;strokeColor=#CCCCCC;html=1;" parent="1" vertex="1">
          <mxGeometry x="520" y="170" width="120" height="20" as="geometry"/>
        </mxCell>
        <mxCell id="7a8b956e7d50b54d-210" value="" style="align=left;strokeColor=#CCCCCC;html=1;" parent="1" vertex="1">
          <mxGeometry x="520" y="190" width="120" height="20" as="geometry"/>
        </mxCell>
        <mxCell id="7a8b956e7d50b54d-211" value="" style="align=left;strokeColor=#CCCCCC;html=1;" parent="1" vertex="1">
          <mxGeometry x="520" y="210" width="120" height="20" as="geometry"/>
        </mxCell>
        <mxCell id="7a8b956e7d50b54d-212" value="" style="align=left;strokeColor=#CCCCCC;html=1;" parent="1" vertex="1">
          <mxGeometry x="520" y="230" width="120" height="20" as="geometry"/>
        </mxCell>
        <mxCell id="7a8b956e7d50b54d-213" value="" style="align=left;strokeColor=#CCCCCC;html=1;" parent="1" vertex="1">
          <mxGeometry x="520" y="250" width="120" height="20" as="geometry"/>
        </mxCell>
        <mxCell id="7a8b956e7d50b54d-214" value="" style="align=left;strokeColor=#CCCCCC;html=1;" parent="1" vertex="1">
          <mxGeometry x="520" y="270" width="120" height="20" as="geometry"/>
        </mxCell>
        <mxCell id="7a8b956e7d50b54d-215" value="" style="align=left;strokeColor=#CCCCCC;html=1;" parent="1" vertex="1">
          <mxGeometry x="520" y="290" width="120" height="20" as="geometry"/>
        </mxCell>
        <mxCell id="7a8b956e7d50b54d-216" value="" style="align=left;strokeColor=#CCCCCC;html=1;" parent="1" vertex="1">
          <mxGeometry x="520" y="310" width="120" height="20" as="geometry"/>
        </mxCell>
        <mxCell id="7a8b956e7d50b54d-217" value="" style="align=left;strokeColor=#CCCCCC;html=1;" parent="1" vertex="1">
          <mxGeometry x="520" y="330" width="120" height="20" as="geometry"/>
        </mxCell>
        <mxCell id="7a8b956e7d50b54d-218" value="" style="align=left;strokeColor=#CCCCCC;html=1;" parent="1" vertex="1">
          <mxGeometry x="520" y="350" width="120" height="20" as="geometry"/>
        </mxCell>
        <mxCell id="7a8b956e7d50b54d-219" value="" style="align=left;strokeColor=#CCCCCC;html=1;" parent="1" vertex="1">
          <mxGeometry x="520" y="370" width="120" height="20" as="geometry"/>
        </mxCell>
        <mxCell id="7a8b956e7d50b54d-220" value="" style="align=left;strokeColor=#CCCCCC;html=1;" parent="1" vertex="1">
          <mxGeometry x="520" y="390" width="120" height="20" as="geometry"/>
        </mxCell>
        <mxCell id="7a8b956e7d50b54d-221" value="" style="align=left;strokeColor=#CCCCCC;html=1;" parent="1" vertex="1">
          <mxGeometry x="520" y="410" width="120" height="20" as="geometry"/>
        </mxCell>
        <mxCell id="7a8b956e7d50b54d-222" value="" style="align=left;strokeColor=#CCCCCC;html=1;" parent="1" vertex="1">
          <mxGeometry x="520" y="430" width="120" height="20" as="geometry"/>
        </mxCell>
        <mxCell id="7a8b956e7d50b54d-223" value="" style="align=left;strokeColor=#CCCCCC;html=1;" parent="1" vertex="1">
          <mxGeometry x="520" y="450" width="120" height="20" as="geometry"/>
        </mxCell>
        <mxCell id="7a8b956e7d50b54d-224" value="" style="align=left;strokeColor=#CCCCCC;html=1;" parent="1" vertex="1">
          <mxGeometry x="520" y="470" width="120" height="20" as="geometry"/>
        </mxCell>
        <mxCell id="7a8b956e7d50b54d-225" value="" style="align=left;strokeColor=#CCCCCC;html=1;" parent="1" vertex="1">
          <mxGeometry x="640" y="170" width="120" height="20" as="geometry"/>
        </mxCell>
        <mxCell id="7a8b956e7d50b54d-226" value="" style="align=left;strokeColor=#CCCCCC;html=1;" parent="1" vertex="1">
          <mxGeometry x="640" y="190" width="120" height="20" as="geometry"/>
        </mxCell>
        <mxCell id="7a8b956e7d50b54d-227" value="" style="align=left;strokeColor=#CCCCCC;html=1;" parent="1" vertex="1">
          <mxGeometry x="640" y="210" width="120" height="20" as="geometry"/>
        </mxCell>
        <mxCell id="7a8b956e7d50b54d-228" value="" style="align=left;strokeColor=#CCCCCC;html=1;" parent="1" vertex="1">
          <mxGeometry x="640" y="230" width="120" height="20" as="geometry"/>
        </mxCell>
        <mxCell id="7a8b956e7d50b54d-229" value="" style="align=left;strokeColor=#CCCCCC;html=1;" parent="1" vertex="1">
          <mxGeometry x="640" y="250" width="120" height="20" as="geometry"/>
        </mxCell>
        <mxCell id="7a8b956e7d50b54d-230" value="" style="align=left;strokeColor=#CCCCCC;html=1;" parent="1" vertex="1">
          <mxGeometry x="640" y="270" width="120" height="20" as="geometry"/>
        </mxCell>
        <mxCell id="7a8b956e7d50b54d-231" value="" style="align=left;strokeColor=#CCCCCC;html=1;" parent="1" vertex="1">
          <mxGeometry x="640" y="290" width="120" height="20" as="geometry"/>
        </mxCell>
        <mxCell id="7a8b956e7d50b54d-232" value="" style="align=left;strokeColor=#CCCCCC;html=1;" parent="1" vertex="1">
          <mxGeometry x="640" y="310" width="120" height="20" as="geometry"/>
        </mxCell>
        <mxCell id="7a8b956e7d50b54d-233" value="" style="align=left;strokeColor=#CCCCCC;html=1;" parent="1" vertex="1">
          <mxGeometry x="640" y="330" width="120" height="20" as="geometry"/>
        </mxCell>
        <mxCell id="7a8b956e7d50b54d-234" value="" style="align=left;strokeColor=#CCCCCC;html=1;" parent="1" vertex="1">
          <mxGeometry x="640" y="350" width="120" height="20" as="geometry"/>
        </mxCell>
        <mxCell id="7a8b956e7d50b54d-235" value="" style="align=left;strokeColor=#CCCCCC;html=1;" parent="1" vertex="1">
          <mxGeometry x="640" y="370" width="120" height="20" as="geometry"/>
        </mxCell>
        <mxCell id="7a8b956e7d50b54d-236" value="" style="align=left;strokeColor=#CCCCCC;html=1;" parent="1" vertex="1">
          <mxGeometry x="640" y="390" width="120" height="20" as="geometry"/>
        </mxCell>
        <mxCell id="7a8b956e7d50b54d-237" value="" style="align=left;strokeColor=#CCCCCC;html=1;" parent="1" vertex="1">
          <mxGeometry x="640" y="410" width="120" height="20" as="geometry"/>
        </mxCell>
        <mxCell id="7a8b956e7d50b54d-238" value="" style="align=left;strokeColor=#CCCCCC;html=1;" parent="1" vertex="1">
          <mxGeometry x="640" y="430" width="120" height="20" as="geometry"/>
        </mxCell>
        <mxCell id="7a8b956e7d50b54d-239" value="" style="align=left;strokeColor=#CCCCCC;html=1;" parent="1" vertex="1">
          <mxGeometry x="640" y="450" width="120" height="20" as="geometry"/>
        </mxCell>
        <mxCell id="7a8b956e7d50b54d-240" value="" style="align=left;strokeColor=#CCCCCC;html=1;" parent="1" vertex="1">
          <mxGeometry x="640" y="470" width="120" height="20" as="geometry"/>
        </mxCell>
        <mxCell id="7a8b956e7d50b54d-241" value="" style="align=left;strokeColor=#CCCCCC;html=1;" parent="1" vertex="1">
          <mxGeometry x="760" y="170" width="120" height="20" as="geometry"/>
        </mxCell>
        <mxCell id="7a8b956e7d50b54d-242" value="" style="align=left;strokeColor=#CCCCCC;html=1;" parent="1" vertex="1">
          <mxGeometry x="760" y="190" width="120" height="20" as="geometry"/>
        </mxCell>
        <mxCell id="7a8b956e7d50b54d-243" value="" style="align=left;strokeColor=#CCCCCC;html=1;" parent="1" vertex="1">
          <mxGeometry x="760" y="210" width="120" height="20" as="geometry"/>
        </mxCell>
        <mxCell id="7a8b956e7d50b54d-244" value="" style="align=left;strokeColor=#CCCCCC;html=1;" parent="1" vertex="1">
          <mxGeometry x="760" y="230" width="120" height="20" as="geometry"/>
        </mxCell>
        <mxCell id="7a8b956e7d50b54d-245" value="" style="align=left;strokeColor=#CCCCCC;html=1;" parent="1" vertex="1">
          <mxGeometry x="760" y="250" width="120" height="20" as="geometry"/>
        </mxCell>
        <mxCell id="7a8b956e7d50b54d-246" value="" style="align=left;strokeColor=#CCCCCC;html=1;" parent="1" vertex="1">
          <mxGeometry x="760" y="270" width="120" height="20" as="geometry"/>
        </mxCell>
        <mxCell id="7a8b956e7d50b54d-247" value="" style="align=left;strokeColor=#CCCCCC;html=1;" parent="1" vertex="1">
          <mxGeometry x="760" y="290" width="120" height="20" as="geometry"/>
        </mxCell>
        <mxCell id="7a8b956e7d50b54d-248" value="" style="align=left;strokeColor=#CCCCCC;html=1;" parent="1" vertex="1">
          <mxGeometry x="760" y="310" width="120" height="20" as="geometry"/>
        </mxCell>
        <mxCell id="7a8b956e7d50b54d-249" value="" style="align=left;strokeColor=#CCCCCC;html=1;" parent="1" vertex="1">
          <mxGeometry x="760" y="330" width="120" height="20" as="geometry"/>
        </mxCell>
        <mxCell id="7a8b956e7d50b54d-250" value="" style="align=left;strokeColor=#CCCCCC;html=1;" parent="1" vertex="1">
          <mxGeometry x="760" y="350" width="120" height="20" as="geometry"/>
        </mxCell>
        <mxCell id="7a8b956e7d50b54d-251" value="" style="align=left;strokeColor=#CCCCCC;html=1;" parent="1" vertex="1">
          <mxGeometry x="760" y="370" width="120" height="20" as="geometry"/>
        </mxCell>
        <mxCell id="7a8b956e7d50b54d-252" value="" style="align=left;strokeColor=#CCCCCC;html=1;" parent="1" vertex="1">
          <mxGeometry x="760" y="390" width="120" height="20" as="geometry"/>
        </mxCell>
        <mxCell id="7a8b956e7d50b54d-253" value="" style="align=left;strokeColor=#CCCCCC;html=1;" parent="1" vertex="1">
          <mxGeometry x="760" y="410" width="120" height="20" as="geometry"/>
        </mxCell>
        <mxCell id="7a8b956e7d50b54d-254" value="" style="align=left;strokeColor=#CCCCCC;html=1;" parent="1" vertex="1">
          <mxGeometry x="760" y="430" width="120" height="20" as="geometry"/>
        </mxCell>
        <mxCell id="7a8b956e7d50b54d-255" value="" style="align=left;strokeColor=#CCCCCC;html=1;" parent="1" vertex="1">
          <mxGeometry x="760" y="450" width="120" height="20" as="geometry"/>
        </mxCell>
        <mxCell id="7a8b956e7d50b54d-256" value="" style="align=left;strokeColor=#CCCCCC;html=1;" parent="1" vertex="1">
          <mxGeometry x="760" y="470" width="120" height="20" as="geometry"/>
        </mxCell>
        <mxCell id="7a8b956e7d50b54d-257" value="" style="align=left;strokeColor=#CCCCCC;html=1;" parent="1" vertex="1">
          <mxGeometry x="880" y="170" width="120" height="20" as="geometry"/>
        </mxCell>
        <mxCell id="7a8b956e7d50b54d-258" value="" style="align=left;strokeColor=#CCCCCC;html=1;" parent="1" vertex="1">
          <mxGeometry x="880" y="190" width="120" height="20" as="geometry"/>
        </mxCell>
        <mxCell id="7a8b956e7d50b54d-259" value="" style="align=left;strokeColor=#CCCCCC;html=1;" parent="1" vertex="1">
          <mxGeometry x="880" y="210" width="120" height="20" as="geometry"/>
        </mxCell>
        <mxCell id="7a8b956e7d50b54d-260" value="" style="align=left;strokeColor=#CCCCCC;html=1;" parent="1" vertex="1">
          <mxGeometry x="880" y="230" width="120" height="20" as="geometry"/>
        </mxCell>
        <mxCell id="7a8b956e7d50b54d-261" value="" style="align=left;strokeColor=#CCCCCC;html=1;" parent="1" vertex="1">
          <mxGeometry x="880" y="250" width="120" height="20" as="geometry"/>
        </mxCell>
        <mxCell id="7a8b956e7d50b54d-262" value="" style="align=left;strokeColor=#CCCCCC;html=1;" parent="1" vertex="1">
          <mxGeometry x="880" y="270" width="120" height="20" as="geometry"/>
        </mxCell>
        <mxCell id="7a8b956e7d50b54d-263" value="" style="align=left;strokeColor=#CCCCCC;html=1;" parent="1" vertex="1">
          <mxGeometry x="880" y="290" width="120" height="20" as="geometry"/>
        </mxCell>
        <mxCell id="7a8b956e7d50b54d-264" value="" style="align=left;strokeColor=#CCCCCC;html=1;" parent="1" vertex="1">
          <mxGeometry x="880" y="310" width="120" height="20" as="geometry"/>
        </mxCell>
        <mxCell id="7a8b956e7d50b54d-265" value="" style="align=left;strokeColor=#CCCCCC;html=1;" parent="1" vertex="1">
          <mxGeometry x="880" y="330" width="120" height="20" as="geometry"/>
        </mxCell>
        <mxCell id="7a8b956e7d50b54d-266" value="" style="align=left;strokeColor=#CCCCCC;html=1;" parent="1" vertex="1">
          <mxGeometry x="880" y="350" width="120" height="20" as="geometry"/>
        </mxCell>
        <mxCell id="7a8b956e7d50b54d-267" value="" style="align=left;strokeColor=#CCCCCC;html=1;" parent="1" vertex="1">
          <mxGeometry x="880" y="370" width="120" height="20" as="geometry"/>
        </mxCell>
        <mxCell id="7a8b956e7d50b54d-268" value="" style="align=left;strokeColor=#CCCCCC;html=1;" parent="1" vertex="1">
          <mxGeometry x="880" y="390" width="120" height="20" as="geometry"/>
        </mxCell>
        <mxCell id="7a8b956e7d50b54d-269" value="" style="align=left;strokeColor=#CCCCCC;html=1;" parent="1" vertex="1">
          <mxGeometry x="880" y="410" width="120" height="20" as="geometry"/>
        </mxCell>
        <mxCell id="7a8b956e7d50b54d-270" value="" style="align=left;strokeColor=#CCCCCC;html=1;" parent="1" vertex="1">
          <mxGeometry x="880" y="430" width="120" height="20" as="geometry"/>
        </mxCell>
        <mxCell id="7a8b956e7d50b54d-271" value="" style="align=left;strokeColor=#CCCCCC;html=1;" parent="1" vertex="1">
          <mxGeometry x="880" y="450" width="120" height="20" as="geometry"/>
        </mxCell>
        <mxCell id="7a8b956e7d50b54d-272" value="" style="align=left;strokeColor=#CCCCCC;html=1;" parent="1" vertex="1">
          <mxGeometry x="880" y="470" width="120" height="20" as="geometry"/>
        </mxCell>
        <mxCell id="7a8b956e7d50b54d-273" value="" style="align=left;strokeColor=#CCCCCC;html=1;" parent="1" vertex="1">
          <mxGeometry x="1000" y="170" width="120" height="20" as="geometry"/>
        </mxCell>
        <mxCell id="7a8b956e7d50b54d-274" value="" style="align=left;strokeColor=#CCCCCC;html=1;" parent="1" vertex="1">
          <mxGeometry x="1000" y="190" width="120" height="20" as="geometry"/>
        </mxCell>
        <mxCell id="7a8b956e7d50b54d-275" value="" style="align=left;strokeColor=#CCCCCC;html=1;" parent="1" vertex="1">
          <mxGeometry x="1000" y="210" width="120" height="20" as="geometry"/>
        </mxCell>
        <mxCell id="7a8b956e7d50b54d-276" value="" style="align=left;strokeColor=#CCCCCC;html=1;" parent="1" vertex="1">
          <mxGeometry x="1000" y="230" width="120" height="20" as="geometry"/>
        </mxCell>
        <mxCell id="7a8b956e7d50b54d-277" value="" style="align=left;strokeColor=#CCCCCC;html=1;" parent="1" vertex="1">
          <mxGeometry x="1000" y="250" width="120" height="20" as="geometry"/>
        </mxCell>
        <mxCell id="7a8b956e7d50b54d-278" value="" style="align=left;strokeColor=#CCCCCC;html=1;" parent="1" vertex="1">
          <mxGeometry x="1000" y="270" width="120" height="20" as="geometry"/>
        </mxCell>
        <mxCell id="7a8b956e7d50b54d-279" value="" style="align=left;strokeColor=#CCCCCC;html=1;" parent="1" vertex="1">
          <mxGeometry x="1000" y="290" width="120" height="20" as="geometry"/>
        </mxCell>
        <mxCell id="7a8b956e7d50b54d-280" value="" style="align=left;strokeColor=#CCCCCC;html=1;" parent="1" vertex="1">
          <mxGeometry x="1000" y="310" width="120" height="20" as="geometry"/>
        </mxCell>
        <mxCell id="7a8b956e7d50b54d-281" value="" style="align=left;strokeColor=#CCCCCC;html=1;" parent="1" vertex="1">
          <mxGeometry x="1000" y="330" width="120" height="20" as="geometry"/>
        </mxCell>
        <mxCell id="7a8b956e7d50b54d-282" value="" style="align=left;strokeColor=#CCCCCC;html=1;" parent="1" vertex="1">
          <mxGeometry x="1000" y="350" width="120" height="20" as="geometry"/>
        </mxCell>
        <mxCell id="7a8b956e7d50b54d-283" value="" style="align=left;strokeColor=#CCCCCC;html=1;" parent="1" vertex="1">
          <mxGeometry x="1000" y="370" width="120" height="20" as="geometry"/>
        </mxCell>
        <mxCell id="7a8b956e7d50b54d-284" value="" style="align=left;strokeColor=#CCCCCC;html=1;" parent="1" vertex="1">
          <mxGeometry x="1000" y="390" width="120" height="20" as="geometry"/>
        </mxCell>
        <mxCell id="7a8b956e7d50b54d-285" value="" style="align=left;strokeColor=#CCCCCC;html=1;" parent="1" vertex="1">
          <mxGeometry x="1000" y="410" width="120" height="20" as="geometry"/>
        </mxCell>
        <mxCell id="7a8b956e7d50b54d-286" value="" style="align=left;strokeColor=#CCCCCC;html=1;" parent="1" vertex="1">
          <mxGeometry x="1000" y="430" width="120" height="20" as="geometry"/>
        </mxCell>
        <mxCell id="7a8b956e7d50b54d-287" value="" style="align=left;strokeColor=#CCCCCC;html=1;" parent="1" vertex="1">
          <mxGeometry x="1000" y="450" width="120" height="20" as="geometry"/>
        </mxCell>
        <mxCell id="7a8b956e7d50b54d-288" value="" style="align=left;strokeColor=#CCCCCC;html=1;" parent="1" vertex="1">
          <mxGeometry x="1000" y="470" width="120" height="20" as="geometry"/>
        </mxCell>
        <mxCell id="7a8b956e7d50b54d-289" value="" style="align=left;strokeColor=#CCCCCC;html=1;" parent="1" vertex="1">
          <mxGeometry x="1120" y="170" width="120" height="20" as="geometry"/>
        </mxCell>
        <mxCell id="7a8b956e7d50b54d-290" value="" style="align=left;strokeColor=#CCCCCC;html=1;" parent="1" vertex="1">
          <mxGeometry x="1120" y="190" width="120" height="20" as="geometry"/>
        </mxCell>
        <mxCell id="7a8b956e7d50b54d-291" value="" style="align=left;strokeColor=#CCCCCC;html=1;" parent="1" vertex="1">
          <mxGeometry x="1120" y="210" width="120" height="20" as="geometry"/>
        </mxCell>
        <mxCell id="7a8b956e7d50b54d-292" value="" style="align=left;strokeColor=#CCCCCC;html=1;" parent="1" vertex="1">
          <mxGeometry x="1120" y="230" width="120" height="20" as="geometry"/>
        </mxCell>
        <mxCell id="7a8b956e7d50b54d-293" value="" style="align=left;strokeColor=#CCCCCC;html=1;" parent="1" vertex="1">
          <mxGeometry x="1120" y="250" width="120" height="20" as="geometry"/>
        </mxCell>
        <mxCell id="7a8b956e7d50b54d-294" value="" style="align=left;strokeColor=#CCCCCC;html=1;" parent="1" vertex="1">
          <mxGeometry x="1120" y="270" width="120" height="20" as="geometry"/>
        </mxCell>
        <mxCell id="7a8b956e7d50b54d-295" value="" style="align=left;strokeColor=#CCCCCC;html=1;" parent="1" vertex="1">
          <mxGeometry x="1120" y="290" width="120" height="20" as="geometry"/>
        </mxCell>
        <mxCell id="7a8b956e7d50b54d-296" value="" style="align=left;strokeColor=#CCCCCC;html=1;" parent="1" vertex="1">
          <mxGeometry x="1120" y="310" width="120" height="20" as="geometry"/>
        </mxCell>
        <mxCell id="7a8b956e7d50b54d-297" value="" style="align=left;strokeColor=#CCCCCC;html=1;" parent="1" vertex="1">
          <mxGeometry x="1120" y="330" width="120" height="20" as="geometry"/>
        </mxCell>
        <mxCell id="7a8b956e7d50b54d-298" value="" style="align=left;strokeColor=#CCCCCC;html=1;" parent="1" vertex="1">
          <mxGeometry x="1120" y="350" width="120" height="20" as="geometry"/>
        </mxCell>
        <mxCell id="7a8b956e7d50b54d-299" value="" style="align=left;strokeColor=#CCCCCC;html=1;" parent="1" vertex="1">
          <mxGeometry x="1120" y="370" width="120" height="20" as="geometry"/>
        </mxCell>
        <mxCell id="7a8b956e7d50b54d-300" value="" style="align=left;strokeColor=#CCCCCC;html=1;" parent="1" vertex="1">
          <mxGeometry x="1120" y="390" width="120" height="20" as="geometry"/>
        </mxCell>
        <mxCell id="7a8b956e7d50b54d-301" value="" style="align=left;strokeColor=#CCCCCC;html=1;" parent="1" vertex="1">
          <mxGeometry x="1120" y="410" width="120" height="20" as="geometry"/>
        </mxCell>
        <mxCell id="7a8b956e7d50b54d-302" value="" style="align=left;strokeColor=#CCCCCC;html=1;" parent="1" vertex="1">
          <mxGeometry x="1120" y="430" width="120" height="20" as="geometry"/>
        </mxCell>
        <mxCell id="7a8b956e7d50b54d-303" value="" style="align=left;strokeColor=#CCCCCC;html=1;" parent="1" vertex="1">
          <mxGeometry x="1120" y="450" width="120" height="20" as="geometry"/>
        </mxCell>
        <mxCell id="7a8b956e7d50b54d-304" value="" style="align=left;strokeColor=#CCCCCC;html=1;" parent="1" vertex="1">
          <mxGeometry x="1120" y="470" width="120" height="20" as="geometry"/>
        </mxCell>
        <mxCell id="7a8b956e7d50b54d-305" value="" style="align=left;strokeColor=#CCCCCC;html=1;" parent="1" vertex="1">
          <mxGeometry x="1240" y="170" width="120" height="20" as="geometry"/>
        </mxCell>
        <mxCell id="7a8b956e7d50b54d-306" value="" style="align=left;strokeColor=#CCCCCC;html=1;" parent="1" vertex="1">
          <mxGeometry x="1240" y="190" width="120" height="20" as="geometry"/>
        </mxCell>
        <mxCell id="7a8b956e7d50b54d-307" value="" style="align=left;strokeColor=#CCCCCC;html=1;" parent="1" vertex="1">
          <mxGeometry x="1240" y="210" width="120" height="20" as="geometry"/>
        </mxCell>
        <mxCell id="7a8b956e7d50b54d-308" value="" style="align=left;strokeColor=#CCCCCC;html=1;" parent="1" vertex="1">
          <mxGeometry x="1240" y="230" width="120" height="20" as="geometry"/>
        </mxCell>
        <mxCell id="7a8b956e7d50b54d-309" value="" style="align=left;strokeColor=#CCCCCC;html=1;" parent="1" vertex="1">
          <mxGeometry x="1240" y="250" width="120" height="20" as="geometry"/>
        </mxCell>
        <mxCell id="7a8b956e7d50b54d-310" value="" style="align=left;strokeColor=#CCCCCC;html=1;" parent="1" vertex="1">
          <mxGeometry x="1240" y="270" width="120" height="20" as="geometry"/>
        </mxCell>
        <mxCell id="7a8b956e7d50b54d-311" value="" style="align=left;strokeColor=#CCCCCC;html=1;" parent="1" vertex="1">
          <mxGeometry x="1240" y="290" width="120" height="20" as="geometry"/>
        </mxCell>
        <mxCell id="7a8b956e7d50b54d-312" value="" style="align=left;strokeColor=#CCCCCC;html=1;" parent="1" vertex="1">
          <mxGeometry x="1240" y="310" width="120" height="20" as="geometry"/>
        </mxCell>
        <mxCell id="7a8b956e7d50b54d-313" value="" style="align=left;strokeColor=#CCCCCC;html=1;" parent="1" vertex="1">
          <mxGeometry x="1240" y="330" width="120" height="20" as="geometry"/>
        </mxCell>
        <mxCell id="7a8b956e7d50b54d-314" value="" style="align=left;strokeColor=#CCCCCC;html=1;" parent="1" vertex="1">
          <mxGeometry x="1240" y="350" width="120" height="20" as="geometry"/>
        </mxCell>
        <mxCell id="7a8b956e7d50b54d-315" value="" style="align=left;strokeColor=#CCCCCC;html=1;" parent="1" vertex="1">
          <mxGeometry x="1240" y="370" width="120" height="20" as="geometry"/>
        </mxCell>
        <mxCell id="7a8b956e7d50b54d-316" value="" style="align=left;strokeColor=#CCCCCC;html=1;" parent="1" vertex="1">
          <mxGeometry x="1240" y="390" width="120" height="20" as="geometry"/>
        </mxCell>
        <mxCell id="7a8b956e7d50b54d-317" value="" style="align=left;strokeColor=#CCCCCC;html=1;" parent="1" vertex="1">
          <mxGeometry x="1240" y="410" width="120" height="20" as="geometry"/>
        </mxCell>
        <mxCell id="7a8b956e7d50b54d-318" value="" style="align=left;strokeColor=#CCCCCC;html=1;" parent="1" vertex="1">
          <mxGeometry x="1240" y="430" width="120" height="20" as="geometry"/>
        </mxCell>
        <mxCell id="7a8b956e7d50b54d-319" value="" style="align=left;strokeColor=#CCCCCC;html=1;" parent="1" vertex="1">
          <mxGeometry x="1240" y="450" width="120" height="20" as="geometry"/>
        </mxCell>
        <mxCell id="7a8b956e7d50b54d-320" value="" style="align=left;strokeColor=#CCCCCC;html=1;" parent="1" vertex="1">
          <mxGeometry x="1240" y="470" width="120" height="20" as="geometry"/>
        </mxCell>
        <mxCell id="7a8b956e7d50b54d-321" value="" style="align=left;strokeColor=#CCCCCC;html=1;" parent="1" vertex="1">
          <mxGeometry x="1360" y="170" width="120" height="20" as="geometry"/>
        </mxCell>
        <mxCell id="7a8b956e7d50b54d-322" value="" style="align=left;strokeColor=#CCCCCC;html=1;" parent="1" vertex="1">
          <mxGeometry x="1360" y="190" width="120" height="20" as="geometry"/>
        </mxCell>
        <mxCell id="7a8b956e7d50b54d-323" value="" style="align=left;strokeColor=#CCCCCC;html=1;" parent="1" vertex="1">
          <mxGeometry x="1360" y="210" width="120" height="20" as="geometry"/>
        </mxCell>
        <mxCell id="7a8b956e7d50b54d-324" value="" style="align=left;strokeColor=#CCCCCC;html=1;" parent="1" vertex="1">
          <mxGeometry x="1360" y="230" width="120" height="20" as="geometry"/>
        </mxCell>
        <mxCell id="7a8b956e7d50b54d-325" value="" style="align=left;strokeColor=#CCCCCC;html=1;" parent="1" vertex="1">
          <mxGeometry x="1360" y="250" width="120" height="20" as="geometry"/>
        </mxCell>
        <mxCell id="7a8b956e7d50b54d-326" value="" style="align=left;strokeColor=#CCCCCC;html=1;" parent="1" vertex="1">
          <mxGeometry x="1360" y="270" width="120" height="20" as="geometry"/>
        </mxCell>
        <mxCell id="7a8b956e7d50b54d-327" value="" style="align=left;strokeColor=#CCCCCC;html=1;" parent="1" vertex="1">
          <mxGeometry x="1360" y="290" width="120" height="20" as="geometry"/>
        </mxCell>
        <mxCell id="7a8b956e7d50b54d-328" value="" style="align=left;strokeColor=#CCCCCC;html=1;" parent="1" vertex="1">
          <mxGeometry x="1360" y="310" width="120" height="20" as="geometry"/>
        </mxCell>
        <mxCell id="7a8b956e7d50b54d-329" value="" style="align=left;strokeColor=#CCCCCC;html=1;" parent="1" vertex="1">
          <mxGeometry x="1360" y="330" width="120" height="20" as="geometry"/>
        </mxCell>
        <mxCell id="7a8b956e7d50b54d-330" value="" style="align=left;strokeColor=#CCCCCC;html=1;" parent="1" vertex="1">
          <mxGeometry x="1360" y="350" width="120" height="20" as="geometry"/>
        </mxCell>
        <mxCell id="7a8b956e7d50b54d-331" value="" style="align=left;strokeColor=#CCCCCC;html=1;" parent="1" vertex="1">
          <mxGeometry x="1360" y="370" width="120" height="20" as="geometry"/>
        </mxCell>
        <mxCell id="7a8b956e7d50b54d-332" value="" style="align=left;strokeColor=#CCCCCC;html=1;" parent="1" vertex="1">
          <mxGeometry x="1360" y="390" width="120" height="20" as="geometry"/>
        </mxCell>
        <mxCell id="7a8b956e7d50b54d-333" value="" style="align=left;strokeColor=#CCCCCC;html=1;" parent="1" vertex="1">
          <mxGeometry x="1360" y="410" width="120" height="20" as="geometry"/>
        </mxCell>
        <mxCell id="7a8b956e7d50b54d-334" value="" style="align=left;strokeColor=#CCCCCC;html=1;" parent="1" vertex="1">
          <mxGeometry x="1360" y="430" width="120" height="20" as="geometry"/>
        </mxCell>
        <mxCell id="7a8b956e7d50b54d-335" value="" style="align=left;strokeColor=#CCCCCC;html=1;" parent="1" vertex="1">
          <mxGeometry x="1360" y="450" width="120" height="20" as="geometry"/>
        </mxCell>
        <mxCell id="7a8b956e7d50b54d-336" value="" style="align=left;strokeColor=#CCCCCC;html=1;" parent="1" vertex="1">
          <mxGeometry x="1360" y="470" width="120" height="20" as="geometry"/>
        </mxCell>
        <mxCell id="7a8b956e7d50b54d-337" value="" style="align=left;strokeColor=#CCCCCC;html=1;" parent="1" vertex="1">
          <mxGeometry x="1480" y="170" width="120" height="20" as="geometry"/>
        </mxCell>
        <mxCell id="7a8b956e7d50b54d-338" value="" style="align=left;strokeColor=#CCCCCC;html=1;" parent="1" vertex="1">
          <mxGeometry x="1480" y="190" width="120" height="20" as="geometry"/>
        </mxCell>
        <mxCell id="7a8b956e7d50b54d-339" value="" style="align=left;strokeColor=#CCCCCC;html=1;" parent="1" vertex="1">
          <mxGeometry x="1480" y="210" width="120" height="20" as="geometry"/>
        </mxCell>
        <mxCell id="7a8b956e7d50b54d-340" value="" style="align=left;strokeColor=#CCCCCC;html=1;" parent="1" vertex="1">
          <mxGeometry x="1480" y="230" width="120" height="20" as="geometry"/>
        </mxCell>
        <mxCell id="7a8b956e7d50b54d-341" value="" style="align=left;strokeColor=#CCCCCC;html=1;" parent="1" vertex="1">
          <mxGeometry x="1480" y="250" width="120" height="20" as="geometry"/>
        </mxCell>
        <mxCell id="7a8b956e7d50b54d-342" value="" style="align=left;strokeColor=#CCCCCC;html=1;" parent="1" vertex="1">
          <mxGeometry x="1480" y="270" width="120" height="20" as="geometry"/>
        </mxCell>
        <mxCell id="7a8b956e7d50b54d-343" value="" style="align=left;strokeColor=#CCCCCC;html=1;" parent="1" vertex="1">
          <mxGeometry x="1480" y="290" width="120" height="20" as="geometry"/>
        </mxCell>
        <mxCell id="7a8b956e7d50b54d-344" value="" style="align=left;strokeColor=#CCCCCC;html=1;" parent="1" vertex="1">
          <mxGeometry x="1480" y="310" width="120" height="20" as="geometry"/>
        </mxCell>
        <mxCell id="7a8b956e7d50b54d-345" value="" style="align=left;strokeColor=#CCCCCC;html=1;" parent="1" vertex="1">
          <mxGeometry x="1480" y="330" width="120" height="20" as="geometry"/>
        </mxCell>
        <mxCell id="7a8b956e7d50b54d-346" value="" style="align=left;strokeColor=#CCCCCC;html=1;" parent="1" vertex="1">
          <mxGeometry x="1480" y="350" width="120" height="20" as="geometry"/>
        </mxCell>
        <mxCell id="7a8b956e7d50b54d-347" value="" style="align=left;strokeColor=#CCCCCC;html=1;" parent="1" vertex="1">
          <mxGeometry x="1480" y="370" width="120" height="20" as="geometry"/>
        </mxCell>
        <mxCell id="7a8b956e7d50b54d-348" value="" style="align=left;strokeColor=#CCCCCC;html=1;" parent="1" vertex="1">
          <mxGeometry x="1480" y="390" width="120" height="20" as="geometry"/>
        </mxCell>
        <mxCell id="7a8b956e7d50b54d-349" value="" style="align=left;strokeColor=#CCCCCC;html=1;" parent="1" vertex="1">
          <mxGeometry x="1480" y="410" width="120" height="20" as="geometry"/>
        </mxCell>
        <mxCell id="7a8b956e7d50b54d-350" value="" style="align=left;strokeColor=#CCCCCC;html=1;" parent="1" vertex="1">
          <mxGeometry x="1480" y="430" width="120" height="20" as="geometry"/>
        </mxCell>
        <mxCell id="7a8b956e7d50b54d-351" value="" style="align=left;strokeColor=#CCCCCC;html=1;" parent="1" vertex="1">
          <mxGeometry x="1480" y="450" width="120" height="20" as="geometry"/>
        </mxCell>
        <mxCell id="7a8b956e7d50b54d-352" value="" style="align=left;strokeColor=#CCCCCC;html=1;" parent="1" vertex="1">
          <mxGeometry x="1480" y="470" width="120" height="20" as="geometry"/>
        </mxCell>
        <mxCell id="7a8b956e7d50b54d-100" value="W1" style="strokeWidth=1;fontStyle=0;html=1;" parent="1" vertex="1">
          <mxGeometry x="400" y="150" width="30" height="20" as="geometry"/>
        </mxCell>
        <mxCell id="7a8b956e7d50b54d-101" value="W2" style="strokeWidth=1;fontStyle=0;html=1;" parent="1" vertex="1">
          <mxGeometry x="430" y="150" width="30" height="20" as="geometry"/>
        </mxCell>
        <mxCell id="7a8b956e7d50b54d-102" value="W3" style="strokeWidth=1;fontStyle=0;html=1;" parent="1" vertex="1">
          <mxGeometry x="460" y="150" width="30" height="20" as="geometry"/>
        </mxCell>
        <mxCell id="7a8b956e7d50b54d-103" value="W4" style="strokeWidth=1;fontStyle=0;html=1;" parent="1" vertex="1">
          <mxGeometry x="490" y="150" width="30" height="20" as="geometry"/>
        </mxCell>
        <mxCell id="7a8b956e7d50b54d-105" value="W1" style="strokeWidth=1;fontStyle=0;html=1;" parent="1" vertex="1">
          <mxGeometry x="520" y="150" width="30" height="20" as="geometry"/>
        </mxCell>
        <mxCell id="7a8b956e7d50b54d-106" value="W2" style="strokeWidth=1;fontStyle=0;html=1;" parent="1" vertex="1">
          <mxGeometry x="550" y="150" width="30" height="20" as="geometry"/>
        </mxCell>
        <mxCell id="7a8b956e7d50b54d-107" value="W3" style="strokeWidth=1;fontStyle=0;html=1;" parent="1" vertex="1">
          <mxGeometry x="580" y="150" width="30" height="20" as="geometry"/>
        </mxCell>
        <mxCell id="7a8b956e7d50b54d-108" value="W4" style="strokeWidth=1;fontStyle=0;html=1;" parent="1" vertex="1">
          <mxGeometry x="610" y="150" width="30" height="20" as="geometry"/>
        </mxCell>
        <mxCell id="7a8b956e7d50b54d-110" value="W1" style="strokeWidth=1;fontStyle=0;html=1;" parent="1" vertex="1">
          <mxGeometry x="640" y="150" width="30" height="20" as="geometry"/>
        </mxCell>
        <mxCell id="7a8b956e7d50b54d-111" value="W2" style="strokeWidth=1;fontStyle=0;html=1;" parent="1" vertex="1">
          <mxGeometry x="670" y="150" width="30" height="20" as="geometry"/>
        </mxCell>
        <mxCell id="7a8b956e7d50b54d-112" value="W3" style="strokeWidth=1;fontStyle=0;html=1;" parent="1" vertex="1">
          <mxGeometry x="700" y="150" width="30" height="20" as="geometry"/>
        </mxCell>
        <mxCell id="7a8b956e7d50b54d-113" value="W4" style="strokeWidth=1;fontStyle=0;html=1;" parent="1" vertex="1">
          <mxGeometry x="730" y="150" width="30" height="20" as="geometry"/>
        </mxCell>
        <mxCell id="7a8b956e7d50b54d-115" value="W1" style="strokeWidth=1;fontStyle=0;html=1;" parent="1" vertex="1">
          <mxGeometry x="760" y="150" width="30" height="20" as="geometry"/>
        </mxCell>
        <mxCell id="7a8b956e7d50b54d-116" value="W2" style="strokeWidth=1;fontStyle=0;html=1;" parent="1" vertex="1">
          <mxGeometry x="790" y="150" width="30" height="20" as="geometry"/>
        </mxCell>
        <mxCell id="7a8b956e7d50b54d-117" value="W3" style="strokeWidth=1;fontStyle=0;html=1;" parent="1" vertex="1">
          <mxGeometry x="820" y="150" width="30" height="20" as="geometry"/>
        </mxCell>
        <mxCell id="7a8b956e7d50b54d-118" value="W4" style="strokeWidth=1;fontStyle=0;html=1;" parent="1" vertex="1">
          <mxGeometry x="850" y="150" width="30" height="20" as="geometry"/>
        </mxCell>
        <mxCell id="7a8b956e7d50b54d-120" value="W1" style="strokeWidth=1;fontStyle=0;html=1;" parent="1" vertex="1">
          <mxGeometry x="880" y="150" width="30" height="20" as="geometry"/>
        </mxCell>
        <mxCell id="7a8b956e7d50b54d-121" value="W2" style="strokeWidth=1;fontStyle=0;html=1;" parent="1" vertex="1">
          <mxGeometry x="910" y="150" width="30" height="20" as="geometry"/>
        </mxCell>
        <mxCell id="7a8b956e7d50b54d-122" value="W3" style="strokeWidth=1;fontStyle=0;html=1;" parent="1" vertex="1">
          <mxGeometry x="940" y="150" width="30" height="20" as="geometry"/>
        </mxCell>
        <mxCell id="7a8b956e7d50b54d-123" value="W4" style="strokeWidth=1;fontStyle=0;html=1;" parent="1" vertex="1">
          <mxGeometry x="970" y="150" width="30" height="20" as="geometry"/>
        </mxCell>
        <mxCell id="7a8b956e7d50b54d-125" value="W1" style="strokeWidth=1;fontStyle=0;html=1;" parent="1" vertex="1">
          <mxGeometry x="1000" y="150" width="30" height="20" as="geometry"/>
        </mxCell>
        <mxCell id="7a8b956e7d50b54d-126" value="W2" style="strokeWidth=1;fontStyle=0;html=1;" parent="1" vertex="1">
          <mxGeometry x="1030" y="150" width="30" height="20" as="geometry"/>
        </mxCell>
        <mxCell id="7a8b956e7d50b54d-127" value="W3" style="strokeWidth=1;fontStyle=0;html=1;" parent="1" vertex="1">
          <mxGeometry x="1060" y="150" width="30" height="20" as="geometry"/>
        </mxCell>
        <mxCell id="7a8b956e7d50b54d-128" value="W4" style="strokeWidth=1;fontStyle=0;html=1;" parent="1" vertex="1">
          <mxGeometry x="1090" y="150" width="30" height="20" as="geometry"/>
        </mxCell>
        <mxCell id="7a8b956e7d50b54d-130" value="W1" style="strokeWidth=1;fontStyle=0;html=1;" parent="1" vertex="1">
          <mxGeometry x="1120" y="150" width="30" height="20" as="geometry"/>
        </mxCell>
        <mxCell id="7a8b956e7d50b54d-131" value="W2" style="strokeWidth=1;fontStyle=0;html=1;" parent="1" vertex="1">
          <mxGeometry x="1150" y="150" width="30" height="20" as="geometry"/>
        </mxCell>
        <mxCell id="7a8b956e7d50b54d-132" value="W3" style="strokeWidth=1;fontStyle=0;html=1;" parent="1" vertex="1">
          <mxGeometry x="1180" y="150" width="30" height="20" as="geometry"/>
        </mxCell>
        <mxCell id="7a8b956e7d50b54d-133" value="W4" style="strokeWidth=1;fontStyle=0;html=1;" parent="1" vertex="1">
          <mxGeometry x="1210" y="150" width="30" height="20" as="geometry"/>
        </mxCell>
        <mxCell id="7a8b956e7d50b54d-135" value="W1" style="strokeWidth=1;fontStyle=0;html=1;" parent="1" vertex="1">
          <mxGeometry x="1240" y="150" width="30" height="20" as="geometry"/>
        </mxCell>
        <mxCell id="7a8b956e7d50b54d-136" value="W2" style="strokeWidth=1;fontStyle=0;html=1;" parent="1" vertex="1">
          <mxGeometry x="1270" y="150" width="30" height="20" as="geometry"/>
        </mxCell>
        <mxCell id="7a8b956e7d50b54d-137" value="W3" style="strokeWidth=1;fontStyle=0;html=1;" parent="1" vertex="1">
          <mxGeometry x="1300" y="150" width="30" height="20" as="geometry"/>
        </mxCell>
        <mxCell id="7a8b956e7d50b54d-138" value="W4" style="strokeWidth=1;fontStyle=0;html=1;" parent="1" vertex="1">
          <mxGeometry x="1330" y="150" width="30" height="20" as="geometry"/>
        </mxCell>
        <mxCell id="7a8b956e7d50b54d-140" value="W1" style="strokeWidth=1;fontStyle=0;html=1;" parent="1" vertex="1">
          <mxGeometry x="1360" y="150" width="30" height="20" as="geometry"/>
        </mxCell>
        <mxCell id="7a8b956e7d50b54d-141" value="W2" style="strokeWidth=1;fontStyle=0;html=1;" parent="1" vertex="1">
          <mxGeometry x="1390" y="150" width="30" height="20" as="geometry"/>
        </mxCell>
        <mxCell id="7a8b956e7d50b54d-142" value="W3" style="strokeWidth=1;fontStyle=0;html=1;" parent="1" vertex="1">
          <mxGeometry x="1420" y="150" width="30" height="20" as="geometry"/>
        </mxCell>
        <mxCell id="7a8b956e7d50b54d-143" value="W4" style="strokeWidth=1;fontStyle=0;html=1;" parent="1" vertex="1">
          <mxGeometry x="1450" y="150" width="30" height="20" as="geometry"/>
        </mxCell>
        <mxCell id="7a8b956e7d50b54d-146" value="W1" style="strokeWidth=1;fontStyle=0;html=1;" parent="1" vertex="1">
          <mxGeometry x="280" y="150" width="30" height="20" as="geometry"/>
        </mxCell>
        <mxCell id="7a8b956e7d50b54d-147" value="W2" style="strokeWidth=1;fontStyle=0;html=1;" parent="1" vertex="1">
          <mxGeometry x="310" y="150" width="30" height="20" as="geometry"/>
        </mxCell>
        <mxCell id="7a8b956e7d50b54d-148" value="W3" style="strokeWidth=1;fontStyle=0;html=1;" parent="1" vertex="1">
          <mxGeometry x="340" y="150" width="30" height="20" as="geometry"/>
        </mxCell>
        <mxCell id="7a8b956e7d50b54d-149" value="W4" style="strokeWidth=1;fontStyle=0;html=1;" parent="1" vertex="1">
          <mxGeometry x="370" y="150" width="30" height="20" as="geometry"/>
        </mxCell>
        <mxCell id="7a8b956e7d50b54d-152" value="W1" style="strokeWidth=1;fontStyle=0;html=1;" parent="1" vertex="1">
          <mxGeometry x="160" y="150" width="30" height="20" as="geometry"/>
        </mxCell>
        <mxCell id="7a8b956e7d50b54d-153" value="W2" style="strokeWidth=1;fontStyle=0;html=1;" parent="1" vertex="1">
          <mxGeometry x="190" y="150" width="30" height="20" as="geometry"/>
        </mxCell>
        <mxCell id="7a8b956e7d50b54d-154" value="W3" style="strokeWidth=1;fontStyle=0;html=1;" parent="1" vertex="1">
          <mxGeometry x="220" y="150" width="30" height="20" as="geometry"/>
        </mxCell>
        <mxCell id="7a8b956e7d50b54d-155" value="W4" style="strokeWidth=1;fontStyle=0;html=1;" parent="1" vertex="1">
          <mxGeometry x="250" y="150" width="30" height="20" as="geometry"/>
        </mxCell>
        <mxCell id="7a8b956e7d50b54d-158" value="W1" style="strokeWidth=1;fontStyle=0;html=1;" parent="1" vertex="1">
          <mxGeometry x="1480" y="150" width="30" height="20" as="geometry"/>
        </mxCell>
        <mxCell id="7a8b956e7d50b54d-159" value="W2" style="strokeWidth=1;fontStyle=0;html=1;" parent="1" vertex="1">
          <mxGeometry x="1510" y="150" width="30" height="20" as="geometry"/>
        </mxCell>
        <mxCell id="7a8b956e7d50b54d-160" value="W3" style="strokeWidth=1;fontStyle=0;html=1;" parent="1" vertex="1">
          <mxGeometry x="1540" y="150" width="30" height="20" as="geometry"/>
        </mxCell>
        <mxCell id="7a8b956e7d50b54d-161" value="W4" style="strokeWidth=1;fontStyle=0;html=1;" parent="1" vertex="1">
          <mxGeometry x="1570" y="150" width="30" height="20" as="geometry"/>
        </mxCell>
        <mxCell id="7a8b956e7d50b54d-353" value="Task 1" style="align=left;strokeColor=#6c8ebf;html=1;fillColor=#dae8fc;" parent="1" vertex="1">
          <mxGeometry x="160" y="170" width="90" height="20" as="geometry"/>
        </mxCell>
        <mxCell id="7a8b956e7d50b54d-354" value="Task 2" style="align=left;strokeColor=#6c8ebf;html=1;fillColor=#dae8fc;" parent="1" vertex="1">
          <mxGeometry x="250" y="190" width="60" height="20" as="geometry"/>
        </mxCell>
        <mxCell id="7a8b956e7d50b54d-355" value="기획 개발 협의" style="align=left;strokeColor=#6c8ebf;html=1;fillColor=#dae8fc;" parent="1" vertex="1">
          <mxGeometry x="310" y="210" width="90" height="20" as="geometry"/>
        </mxCell>
        <mxCell id="7a8b956e7d50b54d-356" value="게임 등록 프로세스 구축" style="align=left;strokeColor=#6c8ebf;html=1;fillColor=#dae8fc;" parent="1" vertex="1">
          <mxGeometry x="400" y="230" width="240" height="20" as="geometry"/>
        </mxCell>
        <mxCell id="7a8b956e7d50b54d-357" value="Task 5" style="align=left;strokeColor=#6c8ebf;html=1;fillColor=#dae8fc;" parent="1" vertex="1">
          <mxGeometry x="370" y="250" width="60" height="20" as="geometry"/>
        </mxCell>
        <mxCell id="7a8b956e7d50b54d-358" value="Task 6" style="align=left;strokeColor=#6c8ebf;html=1;fillColor=#dae8fc;" parent="1" vertex="1">
          <mxGeometry x="430" y="270" width="180" height="20" as="geometry"/>
        </mxCell>
        <mxCell id="7a8b956e7d50b54d-359" value="Task 7" style="align=left;strokeColor=#6c8ebf;html=1;fillColor=#dae8fc;" parent="1" vertex="1">
          <mxGeometry x="610" y="290" width="150" height="20" as="geometry"/>
        </mxCell>
        <mxCell id="7a8b956e7d50b54d-360" value="Task 8" style="align=left;strokeColor=#6c8ebf;html=1;fillColor=#dae8fc;" parent="1" vertex="1">
          <mxGeometry x="760" y="310" width="60" height="20" as="geometry"/>
        </mxCell>
        <mxCell id="7a8b956e7d50b54d-361" value="Task 9" style="align=left;strokeColor=#6c8ebf;html=1;fillColor=#dae8fc;" parent="1" vertex="1">
          <mxGeometry x="760" y="330" width="60" height="20" as="geometry"/>
        </mxCell>
        <mxCell id="7a8b956e7d50b54d-362" value="Task 10" style="align=left;strokeColor=#6c8ebf;html=1;fillColor=#dae8fc;" parent="1" vertex="1">
          <mxGeometry x="760" y="350" width="60" height="20" as="geometry"/>
        </mxCell>
        <mxCell id="7a8b956e7d50b54d-363" value="Task 11" style="align=left;strokeColor=#6c8ebf;html=1;fillColor=#dae8fc;" parent="1" vertex="1">
          <mxGeometry x="820" y="370" width="150" height="20" as="geometry"/>
        </mxCell>
        <mxCell id="7a8b956e7d50b54d-364" value="Task 12" style="align=left;strokeColor=#6c8ebf;html=1;fillColor=#dae8fc;" parent="1" vertex="1">
          <mxGeometry x="970" y="390" width="90" height="20" as="geometry"/>
        </mxCell>
        <mxCell id="7a8b956e7d50b54d-365" value="Task 13" style="align=left;strokeColor=#6c8ebf;html=1;fillColor=#dae8fc;" parent="1" vertex="1">
          <mxGeometry x="1060" y="410" width="90" height="20" as="geometry"/>
        </mxCell>
        <mxCell id="7a8b956e7d50b54d-366" value="Task 14" style="align=left;strokeColor=#6c8ebf;html=1;fillColor=#dae8fc;" parent="1" vertex="1">
          <mxGeometry x="1060" y="430" width="90" height="20" as="geometry"/>
        </mxCell>
        <mxCell id="7a8b956e7d50b54d-367" value="Task 15" style="align=left;strokeColor=#6c8ebf;html=1;fillColor=#dae8fc;" parent="1" vertex="1">
          <mxGeometry x="1150" y="450" width="210" height="20" as="geometry"/>
        </mxCell>
        <mxCell id="7a8b956e7d50b54d-368" value="Task 16" style="align=left;strokeColor=#6c8ebf;html=1;fillColor=#dae8fc;" parent="1" vertex="1">
          <mxGeometry x="1360" y="470" width="120" height="20" as="geometry"/>
        </mxCell>
      </root>
    </mxGraphModel>
  </diagram>
</mxfile>
